HIERARCHY
ROOT Hips
{
  OFFSET 5.80788e-005 67.184 3.4734
  CHANNELS 6 Xposition Yposition Zposition Zrotation Xrotation Yrotation
  JOINT Chest
  {
    OFFSET 0 8.7983 -4.7612
    CHANNELS 6 Xposition Yposition Zposition Zrotation Xrotation Yrotation
    JOINT Chest2
    {
      OFFSET 0 8.0291 0.4195
      CHANNELS 6 Xposition Yposition Zposition Zrotation Xrotation Yrotation
      JOINT Chest3
      {
        OFFSET 0 9.9351 -2.2114
        CHANNELS 6 Xposition Yposition Zposition Zrotation Xrotation Yrotation
        JOINT Neck
        {
          OFFSET 0 22.3885 -0.4656
          CHANNELS 6 Xposition Yposition Zposition Zrotation Xrotation Yrotation
          JOINT Head
          {
            OFFSET -0.0001 12.643 3.4389
            CHANNELS 6 Xposition Yposition Zposition Zrotation Xrotation Yrotation
            End Site
            {
              OFFSET 0.0001 17.6655 0.5274
            }
          }
        }
        JOINT LeftCollar
        {
          OFFSET 2.2603 21.606 7.4023
          CHANNELS 6 Xposition Yposition Zposition Zrotation Xrotation Yrotation
          JOINT LeftShoulder
          {
            OFFSET 13.5163 -1.1332 -5.0146
            CHANNELS 6 Xposition Yposition Zposition Zrotation Xrotation Yrotation
            JOINT LeftElbow
            {
              OFFSET -0.0995 -28.05 -0.2431
              CHANNELS 6 Xposition Yposition Zposition Zrotation Xrotation Yrotation
              JOINT LeftWrist
              {
                OFFSET 0.0679 -23.3996 -0.1402
                CHANNELS 6 Xposition Yposition Zposition Zrotation Xrotation Yrotation
                JOINT LeftFinger1
                {
                  OFFSET 0.7932 -9.069 2.5189
                  CHANNELS 6 Xposition Yposition Zposition Zrotation Xrotation Yrotation
                  JOINT LeftFinger11
                  {
                    OFFSET -0.8272 -3.3923 0.5977
                    CHANNELS 6 Xposition Yposition Zposition Zrotation Xrotation Yrotation
                    JOINT LeftFinger12
                    {
                      OFFSET -0.5649 -2.3158 0.4082
                      CHANNELS 6 Xposition Yposition Zposition Zrotation Xrotation Yrotation
                      End Site
                      {
                        OFFSET -0.4919 -1.6479 0.2673
                      }
                    }
                  }
                }
                JOINT LeftFinger2
                {
                  OFFSET 0.9159 -9.2044 0.2193
                  CHANNELS 6 Xposition Yposition Zposition Zrotation Xrotation Yrotation
                  JOINT LeftFinger21
                  {
                    OFFSET 0.0117 -4.1944 -0.0248
                    CHANNELS 6 Xposition Yposition Zposition Zrotation Xrotation Yrotation
                    JOINT LeftFinger22
                    {
                      OFFSET 0.0071 -2.3249 -0.0142
                      CHANNELS 6 Xposition Yposition Zposition Zrotation Xrotation Yrotation
                      End Site
                      {
                        OFFSET -0.1475 -2.0882 0.0028
                      }
                    }
                  }
                }
                JOINT LeftFinger3
                {
                  OFFSET 0.6113 -8.7231 -2.0637
                  CHANNELS 6 Xposition Yposition Zposition Zrotation Xrotation Yrotation
                  JOINT LeftFinger31
                  {
                    OFFSET -0.1927 -3.8059 -0.2383
                    CHANNELS 6 Xposition Yposition Zposition Zrotation Xrotation Yrotation
                    JOINT LeftFinger32
                    {
                      OFFSET -0.1091 -2.1688 -0.1362
                      CHANNELS 6 Xposition Yposition Zposition Zrotation Xrotation Yrotation
                      End Site
                      {
                        OFFSET -0.2358 -1.9176 -0.0906
                      }
                    }
                  }
                }
                JOINT LeftFinger4
                {
                  OFFSET -0.6151 -8.0947 -3.5641
                  CHANNELS 6 Xposition Yposition Zposition Zrotation Xrotation Yrotation
                  JOINT LeftFinger41
                  {
                    OFFSET -0.4882 -2.341 -0.6462
                    CHANNELS 6 Xposition Yposition Zposition Zrotation Xrotation Yrotation
                    JOINT LeftFinger42
                    {
                      OFFSET -0.3575 -1.7167 -0.4742
                      CHANNELS 6 Xposition Yposition Zposition Zrotation Xrotation Yrotation
                      End Site
                      {
                        OFFSET -0.4187 -1.5237 -0.3496
                      }
                    }
                  }
                }
                JOINT LeftFinger0
                {
                  OFFSET -1.42 -1.8761 1.4223
                  CHANNELS 6 Xposition Yposition Zposition Zrotation Xrotation Yrotation
                  JOINT LeftFinger01
                  {
                    OFFSET -1.1471 -3.4929 2.6334
                    CHANNELS 6 Xposition Yposition Zposition Zrotation Xrotation Yrotation
                    JOINT LeftFinger02
                    {
                      OFFSET -0.823 -2.3 1.6571
                      CHANNELS 6 Xposition Yposition Zposition Zrotation Xrotation Yrotation
                      End Site
                      {
                        OFFSET -0.5822 -1.6914 1.1582
                      }
                    }
                  }
                }
              }
            }
          }
        }
        JOINT RightCollar
        {
          OFFSET -2.2603 21.606 7.4023
          CHANNELS 6 Xposition Yposition Zposition Zrotation Xrotation Yrotation
          JOINT RightShoulder
          {
            OFFSET -13.5187 -1.1334 -5.0155
            CHANNELS 6 Xposition Yposition Zposition Zrotation Xrotation Yrotation
            JOINT RightElbow
            {
              OFFSET 0.0994 -28.0499 -0.2431
              CHANNELS 6 Xposition Yposition Zposition Zrotation Xrotation Yrotation
              JOINT RightWrist
              {
                OFFSET -0.0679 -23.3996 -0.1402
                CHANNELS 6 Xposition Yposition Zposition Zrotation Xrotation Yrotation
                JOINT RightFinger1
                {
                  OFFSET -0.7932 -9.0691 2.5189
                  CHANNELS 6 Xposition Yposition Zposition Zrotation Xrotation Yrotation
                  JOINT RightFinger11
                  {
                    OFFSET 0.8272 -3.3923 0.5977
                    CHANNELS 6 Xposition Yposition Zposition Zrotation Xrotation Yrotation
                    JOINT RightFinger12
                    {
                      OFFSET 0.565 -2.3158 0.4082
                      CHANNELS 6 Xposition Yposition Zposition Zrotation Xrotation Yrotation
                      End Site
                      {
                        OFFSET 0.4919 -1.6479 0.2673
                      }
                    }
                  }
                }
                JOINT RightFinger2
                {
                  OFFSET -0.916 -9.2044 0.2193
                  CHANNELS 6 Xposition Yposition Zposition Zrotation Xrotation Yrotation
                  JOINT RightFinger21
                  {
                    OFFSET -0.0117 -4.1944 -0.0248
                    CHANNELS 6 Xposition Yposition Zposition Zrotation Xrotation Yrotation
                    JOINT RightFinger22
                    {
                      OFFSET -0.0071 -2.3249 -0.0142
                      CHANNELS 6 Xposition Yposition Zposition Zrotation Xrotation Yrotation
                      End Site
                      {
                        OFFSET 0.1475 -2.0882 0.0028
                      }
                    }
                  }
                }
                JOINT RightFinger3
                {
                  OFFSET -0.6113 -8.7231 -2.0637
                  CHANNELS 6 Xposition Yposition Zposition Zrotation Xrotation Yrotation
                  JOINT RightFinger31
                  {
                    OFFSET 0.1927 -3.8059 -0.2383
                    CHANNELS 6 Xposition Yposition Zposition Zrotation Xrotation Yrotation
                    JOINT RightFinger32
                    {
                      OFFSET 0.1091 -2.1688 -0.1362
                      CHANNELS 6 Xposition Yposition Zposition Zrotation Xrotation Yrotation
                      End Site
                      {
                        OFFSET 0.2358 -1.9176 -0.0906
                      }
                    }
                  }
                }
                JOINT RightFinger4
                {
                  OFFSET 0.6151 -8.0947 -3.564
                  CHANNELS 6 Xposition Yposition Zposition Zrotation Xrotation Yrotation
                  JOINT RightFinger41
                  {
                    OFFSET 0.4882 -2.341 -0.6462
                    CHANNELS 6 Xposition Yposition Zposition Zrotation Xrotation Yrotation
                    JOINT RightFinger42
                    {
                      OFFSET 0.3574 -1.7166 -0.4742
                      CHANNELS 6 Xposition Yposition Zposition Zrotation Xrotation Yrotation
                      End Site
                      {
                        OFFSET 0.4187 -1.5237 -0.3496
                      }
                    }
                  }
                }
                JOINT RightFinger0
                {
                  OFFSET 1.4199 -1.8761 1.4221
                  CHANNELS 6 Xposition Yposition Zposition Zrotation Xrotation Yrotation
                  JOINT RightFinger01
                  {
                    OFFSET 1.1472 -3.4929 2.6336
                    CHANNELS 6 Xposition Yposition Zposition Zrotation Xrotation Yrotation
                    JOINT RightFinger02
                    {
                      OFFSET 0.8229 -2.3 1.6571
                      CHANNELS 6 Xposition Yposition Zposition Zrotation Xrotation Yrotation
                      End Site
                      {
                        OFFSET 0.5822 -1.6914 1.1582
                      }
                    }
                  }
                }
              }
            }
          }
        }
      }
    }
  }
  JOINT RightHip
  {
    OFFSET -9.412 3.9771 -0.7758
    CHANNELS 6 Xposition Yposition Zposition Zrotation Xrotation Yrotation
    JOINT RightKnee
    {
      OFFSET -0.7531 -40.938 0
      CHANNELS 6 Xposition Yposition Zposition Zrotation Xrotation Yrotation
      JOINT RightAnkle
      {
        OFFSET 0 -40.1986 0
        CHANNELS 6 Xposition Yposition Zposition Zrotation Xrotation Yrotation
        JOINT RightToe
        {
          OFFSET 0 -4.4182 9.239
          CHANNELS 6 Xposition Yposition Zposition Zrotation Xrotation Yrotation
          End Site
          {
            OFFSET 0 0 6.1981
          }
        }
      }
    }
  }
  JOINT LeftHip
  {
    OFFSET 9.4119 3.9773 -0.7758
    CHANNELS 6 Xposition Yposition Zposition Zrotation Xrotation Yrotation
    JOINT LeftKnee
    {
      OFFSET 0.7532 -40.9383 0
      CHANNELS 6 Xposition Yposition Zposition Zrotation Xrotation Yrotation
      JOINT LeftAnkle
      {
        OFFSET 0 -40.1986 0
        CHANNELS 6 Xposition Yposition Zposition Zrotation Xrotation Yrotation
        JOINT LeftToe
        {
          OFFSET 0 -4.4182 9.239
          CHANNELS 6 Xposition Yposition Zposition Zrotation Xrotation Yrotation
          End Site
          {
            OFFSET 0 0 6.1981
          }
        }
      }
    }
  }
}
MOTION
Frames:	4
Frame Time:	0.0333333
39.8407 -4.20433 8.17691 3.19638e-009 -25.0011 8.02151e-008 0 8.7983 -4.7612 -0.0187337 -1.1535 -0.129006 0 8.0291 0.4195 -0.0400781 -2.30697 -0.258469 7.10543e-015 9.9351 -2.2114 -0.0400781 -2.30695 -0.258469 -7.10543e-015 22.3885 -0.4656 10.59 19.1311 9.49073 -0.0001 12.643 3.4389 -2.25706e-006 11.5588 -2.01277e-006 2.2603 21.606 7.4023 -11.8752 7.21662 -15.2196 13.5163 -1.1332 -5.0146 38.6447 -32.9572 35.4748 -0.0995 -28.05 -0.2431 2.68484 -16.6825 -32.8956 0.0679 -23.3996 -0.1402 -52.3566 12.9898 -7.28746 0.7932 -9.069 2.5189 -5.78311e-006 -1.33467e-005 -1.31835e-005 -0.8272 -3.3923 0.5977 -3.18055e-015 3.18055e-015 -3.18055e-015 -0.5649 -2.3158 0.4082 -3.18055e-015 0 1.59028e-015 0.915901 -9.2044 0.2193 -5.78311e-006 -1.33467e-005 -1.31835e-005 0.0117 -4.1944 -0.0248 -0.0127802 0.00233247 9.38094e-005 0.0071 -2.3249 -0.0142 -3.18055e-015 9.54166e-015 -1.59028e-015 0.6113 -8.7231 -2.0637 -5.78311e-006 -1.33467e-005 -1.31835e-005 -0.1927 -3.8059 -0.2383 -0.0159849 0.00301215 0.00086793 -0.1091 -2.1688 -0.1362 3.18055e-015 3.18055e-015 1.27222e-014 -0.6151 -8.0947 -3.5641 -5.78311e-006 -1.33467e-005 -1.31835e-005 -0.4882 -2.341 -0.6462 -0.0125558 0.00313213 0.00282017 -0.3575 -1.7167 -0.4742 -6.36111e-015 -4.77083e-015 3.18055e-015 -1.42 -1.8761 1.4223 -5.78311e-006 -1.33467e-005 -1.31835e-005 -1.1471 -3.4929 2.6334 -3.18055e-015 3.18055e-015 -3.18055e-015 -0.823 -2.3 1.6571 -3.18055e-015 0 1.59028e-015 -2.2603 21.606 7.4023 11.1401 7.20083 10.2103 -13.5187 -1.1334 -5.0155 -35.5818 -34.4558 -30.6247 0.0994 -28.0499 -0.2431 -3.42624 -17.873 32.2631 -0.0679 -23.3996 -0.1402 52.171 13.6363 8.60572 -0.793201 -9.0691 2.5189 3.18055e-015 1.59028e-015 -1.11319e-014 0.827201 -3.3923 0.5977 -3.97252e-031 -4.77083e-015 -4.77083e-015 0.565 -2.3158 0.4082 6.36111e-015 -1.11319e-014 -6.36111e-015 -0.916001 -9.2044 0.2193 3.18055e-015 1.59028e-015 -1.11319e-014 -0.0117 -4.1944 -0.0248 0.0129656 0.00230983 -8.00439e-005 -0.0071 -2.3249 -0.0142 5.70117e-006 1.09194e-006 -5.7805e-006 -0.6113 -8.7231 -2.0637 3.18055e-015 1.59028e-015 -1.11319e-014 0.1927 -3.8059 -0.2383 0.0163525 0.00302559 -0.000866863 0.1091 -2.1688 -0.1362 1.76556e-031 -1.59028e-015 6.36111e-015 0.6151 -8.0947 -3.564 3.18055e-015 1.59028e-015 -1.11319e-014 0.4882 -2.341 -0.6462 0.0146116 0.00366929 -0.00326134 0.3574 -1.7166 -0.4742 3.18055e-015 1.59028e-014 -3.18055e-015 1.4199 -1.8761 1.4221 3.18055e-015 1.59028e-015 -1.11319e-014 1.1472 -3.4929 2.6336 -3.97252e-031 -4.77083e-015 -4.77083e-015 0.822901 -2.3 1.6571 6.36111e-015 -1.11319e-014 -6.36111e-015 -9.412 3.9771 -0.7758 -52.5331 -50.9108 -121.948 -0.7531 -40.938 0 1.92033 52.0909 -2.19241 0 -40.1986 0 -3.30463 13.3899 -7.39164 1.77636e-015 -4.4182 9.239 -1.59028e-015 -3.18055e-015 -3.18055e-015 9.4119 3.9773 -0.7758 52.5306 -50.9135 121.922 0.7532 -40.9383 0 -1.96455 52.1085 2.20309 0 -40.1986 0 3.30477 13.3965 7.39787 0 -4.4182 9.239 6.36111e-015 0 -1.43125e-014 
39.8407 -4.20433 8.24805 1.80445e-008 -25.0011 8.95077e-008 0 8.7983 -4.7612 -0.0180295 -1.31282 -0.129166 -7.10543e-015 8.0291 0.4195 -0.0390356 -2.62561 -0.258847 0 9.9351 -2.2114 -0.0390354 -2.62561 -0.258846 -7.10543e-015 22.3885 -0.4656 10.5136 17.9062 9.73139 -0.0001 12.643 3.4389 -4.35605e-006 10.3364 -5.72339e-007 2.2603 21.606 7.4023 -12.0236 7.81555 -14.7106 13.5163 -1.1332 -5.0146 38.3575 -32.9725 35.2774 -0.0995 -28.05 -0.2431 2.66351 -16.9768 -32.8894 0.0679 -23.3996 -0.1402 -52.4657 13.3363 -7.35717 0.7932 -9.069 2.5189 6.36111e-015 -7.95139e-015 -0 -0.8272 -3.3923 0.5977 3.3502e-006 7.81653e-007 -1.33393e-007 -0.5649 -2.3158 0.4082 -3.18055e-015 -9.54166e-015 4.77083e-015 0.9159 -9.2044 0.2193 6.36111e-015 -7.95139e-015 -0 0.0117 -4.1944 -0.0248 -0.0128309 0.00233559 9.27884e-005 0.0071 -2.3249 -0.0142 3.18055e-015 -4.77083e-015 -1.59028e-015 0.6113 -8.7231 -2.0637 6.36111e-015 -7.95139e-015 -0 -0.1927 -3.8059 -0.2383 -0.016046 0.003003 0.000860934 -0.1091 -2.1688 -0.1362 3.18055e-015 3.18055e-015 -3.18055e-015 -0.6151 -8.0947 -3.5641 6.36111e-015 -7.95139e-015 -0 -0.4882 -2.341 -0.6462 -0.0125827 0.00311961 0.00283678 -0.3575 -1.7167 -0.4742 -6.36111e-015 6.36111e-015 -4.77083e-015 -1.42 -1.8761 1.4223 6.36111e-015 -7.95139e-015 -0 -1.1471 -3.4929 2.6334 3.3502e-006 7.81653e-007 -1.33393e-007 -0.823 -2.3 1.6571 -3.18055e-015 -9.54166e-015 4.77083e-015 -2.2603 21.606 7.4023 11.278 7.79521 9.70019 -13.5187 -1.1334 -5.0155 -35.2948 -34.4496 -30.4108 0.0994 -28.0499 -0.2431 -3.40307 -18.1714 32.2463 -0.0679 -23.3996 -0.1402 52.2781 13.997 8.69268 -0.7932 -9.0691 2.5189 9.54166e-015 0 7.95139e-015 0.8272 -3.3923 0.5977 3.18055e-015 -3.18055e-015 4.77083e-015 0.565 -2.3158 0.4082 6.8547e-006 -1.95751e-005 7.21084e-006 -0.916 -9.2044 0.2193 9.54166e-015 0 7.95139e-015 -0.0117 -4.1944 -0.0248 0.012944 0.00230068 -8.16306e-005 -0.0071 -2.3249 -0.0142 -1.14691e-006 -4.28503e-007 1.12208e-006 -0.6113 -8.7231 -2.0637 9.54166e-015 0 7.95139e-015 0.1927 -3.8059 -0.2383 0.0163284 0.00301381 -0.000853177 0.1091 -2.1688 -0.1362 -9.09396e-006 1.23317e-005 -1.52104e-005 0.6151 -8.0947 -3.564 9.54166e-015 0 7.95139e-015 0.4882 -2.341 -0.6462 0.0145813 0.00366555 -0.00325896 0.3574 -1.7166 -0.4742 -3.18055e-015 4.77083e-015 3.18055e-015 1.4199 -1.8761 1.4221 9.54166e-015 0 7.95139e-015 1.1472 -3.4929 2.6336 3.18055e-015 -3.18055e-015 4.77083e-015 0.8229 -2.3 1.6571 6.8547e-006 -1.95751e-005 7.21084e-006 -9.412 3.9771 -0.7758 -52.5329 -50.9109 -121.948 -0.7531 -40.938 0 1.92034 52.0908 -2.19241 -8.88178e-016 -40.1986 -3.55271e-015 -3.30466 13.3899 -7.39164 -3.55271e-015 -4.4182 9.239 0 1.59028e-014 -0 9.4119 3.9773 -0.7758 52.5308 -50.9134 121.922 0.7532 -40.9383 0 -1.96458 52.1086 2.2031 1.77636e-015 -40.1986 0 3.30475 13.3965 7.39787 0 -4.4182 9.239 4.07328e-007 1.88248e-006 2.36608e-006 
39.8407 -4.20433 8.3192 -6.96899e-009 -25.0011 -7.31194e-009 0 8.7983 -4.7612 -0.0173237 -1.47199 -0.129329 0 8.0291 0.4195 -0.0379916 -2.94397 -0.259234 7.10543e-015 9.9351 -2.2114 -0.0379912 -2.94393 -0.259232 7.10543e-015 22.3885 -0.4656 10.4428 16.6767 9.96957 -0.0001 12.643 3.4389 7.02762e-007 9.10993 1.37902e-006 2.2603 21.606 7.4023 -12.1777 8.413 -14.1993 13.5163 -1.1332 -5.0146 38.0737 -32.9856 35.0817 -0.0995 -28.05 -0.2431 2.63892 -17.2706 -32.8832 0.0679 -23.3996 -0.1402 -52.5745 13.6829 -7.42624 0.7932 -9.069 2.5189 -1.08757e-006 8.49294e-007 -2.16264e-006 -0.8272 -3.3923 0.5977 3.18055e-015 -1.59028e-015 1.59028e-015 -0.5649 -2.3158 0.4082 -2.40423e-006 1.83629e-006 -1.16636e-006 0.9159 -9.2044 0.2193 -1.08757e-006 8.49294e-007 -2.16264e-006 0.0117 -4.1944 -0.0248 -0.0128034 0.00231218 8.05419e-005 0.0071 -2.3249 -0.0142 -3.18055e-015 1.59028e-015 -6.36111e-015 0.6113 -8.7231 -2.0637 -1.08757e-006 8.49294e-007 -2.16264e-006 -0.1927 -3.8059 -0.2383 -0.0160189 0.00299166 0.000857836 -0.1091 -2.1688 -0.1362 -1.08663e-006 1.70592e-006 -2.16274e-006 -0.6151 -8.0947 -3.5641 -1.08757e-006 8.49294e-007 -2.16264e-006 -0.4882 -2.341 -0.6462 -0.012521 0.003106 0.00280832 -0.3575 -1.7167 -0.4742 -2.40476e-006 -1.81373e-007 -1.16636e-006 -1.42 -1.8761 1.4223 -1.08757e-006 8.49294e-007 -2.16264e-006 -1.1471 -3.4929 2.6334 3.18055e-015 -1.59028e-015 1.59028e-015 -0.823 -2.3 1.6571 -2.40423e-006 1.83629e-006 -1.16636e-006 -2.2603 21.606 7.4023 11.4215 8.38822 9.18797 -13.5187 -1.1334 -5.0155 -34.997 -34.4452 -30.1909 0.0994 -28.0499 -0.2431 -3.38918 -18.4718 32.2295 -0.0679 -23.3996 -0.1402 52.3847 14.3577 8.77908 -0.7932 -9.0691 2.5189 4.41391e-032 1.59028e-015 -1.59028e-015 0.8272 -3.3923 0.5977 -3.18055e-015 2.9409e-006 -6.36111e-015 0.565 -2.3158 0.4082 3.18055e-015 4.77083e-015 9.54166e-015 -0.916 -9.2044 0.2193 4.41391e-032 1.59028e-015 -1.59028e-015 -0.0117 -4.1944 -0.0248 0.0129462 0.00232255 -8.8122e-005 -0.0071 -2.3249 -0.0142 9.54166e-015 -1.59028e-015 1.59028e-015 -0.6113 -8.7231 -2.0637 4.41391e-032 1.59028e-015 -1.59028e-015 0.1927 -3.8059 -0.2383 0.0163156 0.00305047 -0.000887113 0.1091 -2.1688 -0.1362 9.54166e-015 -6.36111e-015 -0 0.6151 -8.0947 -3.564 4.41391e-032 1.59028e-015 -1.59028e-015 0.4882 -2.341 -0.6462 0.0145268 0.0036718 -0.00326481 0.3574 -1.7166 -0.4742 -3.18055e-015 1.59028e-015 7.95139e-015 1.4199 -1.8761 1.4221 4.41391e-032 1.59028e-015 -1.59028e-015 1.1472 -3.4929 2.6336 -3.18055e-015 2.9409e-006 -6.36111e-015 0.8229 -2.3 1.6571 3.18055e-015 4.77083e-015 9.54166e-015 -9.412 3.9771 -0.7758 -52.5328 -50.911 -121.948 -0.7531 -40.938 0 1.9203 52.0907 -2.1924 -1.77636e-015 -40.1986 8.88179e-015 -3.30463 13.3899 -7.39164 0 -4.4182 9.239 -3.18055e-015 3.18055e-015 1.59028e-015 9.4119 3.9773 -0.7758 52.5307 -50.9135 121.922 0.7532 -40.9383 0 -1.96458 52.1085 2.20309 1.77636e-015 -40.1986 -1.42109e-014 3.30478 13.3965 7.3979 1.77636e-015 -4.4182 9.239 1.59028e-015 -3.18055e-015 -3.18055e-015 
39.8407 -4.20433 8.39034 5.91971e-009 -25.0011 7.3708e-008 0 8.7983 -4.7612 -0.0166218 -1.63097 -0.129473 0 8.0291 0.4195 -0.036955 -3.26193 -0.259578 0 9.9351 -2.2114 -0.036955 -3.26193 -0.259577 0 22.3885 -0.4656 10.3775 15.4431 10.2055 -0.0001 12.643 3.4389 -3.87465e-006 7.87962 -1.47146e-006 2.2603 21.606 7.4023 -12.3372 9.00906 -13.6858 13.5163 -1.1332 -5.0146 37.7873 -32.9989 34.8846 -0.0995 -28.05 -0.2431 2.61661 -17.5647 -32.8771 0.0679 -23.3996 -0.1402 -52.683 14.0296 -7.49477 0.7932 -9.069 2.5189 -1.85384e-030 9.54166e-015 1.11319e-014 -0.8272 -3.3923 0.5977 -3.97252e-031 4.77083e-015 4.77083e-015 -0.5649 -2.3158 0.4082 -5.29669e-031 9.54166e-015 3.18055e-015 0.9159 -9.2044 0.2193 -1.85384e-030 9.54166e-015 1.11319e-014 0.0117 -4.1944 -0.0248 -0.0127703 0.00230984 7.86368e-005 0.0071 -2.3249 -0.0142 3.18055e-015 7.95139e-015 1.59028e-015 0.6113 -8.7231 -2.0637 -1.85384e-030 9.54166e-015 1.11319e-014 -0.1927 -3.8059 -0.2383 -0.0160432 0.00298626 0.000843289 -0.1091 -2.1688 -0.1362 -6.36111e-015 -7.95139e-015 6.36111e-015 -0.6151 -8.0947 -3.5641 -1.85384e-030 9.54166e-015 1.11319e-014 -0.4882 -2.341 -0.6462 -0.0126896 0.00314778 0.0028512 -0.3575 -1.7167 -0.4742 6.36111e-015 1.59028e-015 -4.77083e-015 -1.42 -1.8761 1.4223 -1.85384e-030 9.54166e-015 1.11319e-014 -1.1471 -3.4929 2.6334 -3.97252e-031 4.77083e-015 4.77083e-015 -0.823 -2.3 1.6571 -5.29669e-031 9.54166e-015 3.18055e-015 -2.2603 21.606 7.4023 11.5706 8.97991 8.6736 -13.5187 -1.1334 -5.0155 -34.7081 -34.4378 -29.9759 0.0994 -28.0499 -0.2431 -3.3679 -18.7706 32.2129 -0.0679 -23.3996 -0.1402 52.491 14.7187 8.86483 -0.7932 -9.0691 2.5189 -6.36111e-015 9.54166e-015 6.36111e-015 0.8272 -3.3923 0.5977 -1.27222e-014 4.77083e-015 6.36111e-015 0.565 -2.3158 0.4082 -3.18055e-015 3.18055e-015 -1.59028e-015 -0.916 -9.2044 0.2193 -6.36111e-015 9.54166e-015 6.36111e-015 -0.0117 -4.1944 -0.0248 0.0129678 0.00232202 -9.71244e-005 -0.0071 -2.3249 -0.0142 -9.54166e-015 -4.77083e-015 -4.77083e-015 -0.6113 -8.7231 -2.0637 -6.36111e-015 9.54166e-015 6.36111e-015 0.1927 -3.8059 -0.2383 0.0163518 0.00304532 -0.000887709 0.1091 -2.1688 -0.1362 -9.54166e-015 -3.18055e-015 1.59028e-015 0.6151 -8.0947 -3.564 -6.36111e-015 9.54166e-015 6.36111e-015 0.4882 -2.341 -0.6462 0.0146555 0.00368696 -0.00327946 0.3574 -1.7166 -0.4742 -6.36111e-015 -1.59028e-015 4.77083e-015 1.4199 -1.8761 1.4221 -6.36111e-015 9.54166e-015 6.36111e-015 1.1472 -3.4929 2.6336 -1.27222e-014 4.77083e-015 6.36111e-015 0.8229 -2.3 1.6571 -3.18055e-015 3.18055e-015 -1.59028e-015 -9.412 3.9771 -0.7758 -52.5327 -50.911 -121.948 -0.7531 -40.938 3.55271e-015 1.92024 52.0906 -2.19237 0 -40.1986 -3.55271e-015 -3.3046 13.39 -7.39164 0 -4.4182 9.239 -1.81035e-006 -1.78408e-006 -1.69582e-006 9.4119 3.9773 -0.7758 52.531 -50.9133 121.922 0.7532 -40.9383 7.10543e-015 -1.96458 52.1088 2.20306 0 -40.1986 0 3.30475 13.3965 7.39789 0 -4.4182 9.239 2.29494e-006 -2.31926e-006 -4.60169e-007 
